<?xml version="1.0" encoding="us-ascii" standalone="no"?><svg xmlns="http://www.w3.org/2000/svg" xmlns:xlink="http://www.w3.org/1999/xlink" contentStyleType="text/css" height="1766px" preserveAspectRatio="none" style="width:4809px;height:1766px;background:#FFFFFF;" version="1.1" viewBox="0 0 4809 1766" width="4809px" zoomAndPan="magnify"><defs/><g><ellipse cx="2434.5" cy="20" fill="#222222" rx="10" ry="10" style="stroke:#222222;stroke-width:1.0;"/><rect fill="#F1F1F1" height="34.1328" rx="12.5" ry="12.5" style="stroke:#181818;stroke-width:0.5;" width="332" x="2268.5" y="50"/><text fill="#000000" font-family="sans-serif" font-size="12" lengthAdjust="spacing" textLength="312" x="2278.5" y="71.6016">Initialize current_dir with the current working directory</text><rect fill="#F1F1F1" height="34.1328" rx="12.5" ry="12.5" style="stroke:#181818;stroke-width:0.5;" width="164" x="2352.5" y="104.1328"/><text fill="#000000" font-family="sans-serif" font-size="12" lengthAdjust="spacing" textLength="144" x="2362.5" y="125.7344">Set show_hidden to False</text><rect fill="#F1F1F1" height="34.1328" rx="12.5" ry="12.5" style="stroke:#181818;stroke-width:0.5;" width="158" x="2355.5" y="158.2656"/><text fill="#000000" font-family="sans-serif" font-size="12" lengthAdjust="spacing" textLength="138" x="2365.5" y="179.8672">Set selected_option to 0</text><rect fill="#F1F1F1" height="34.1328" rx="12.5" ry="12.5" style="stroke:#181818;stroke-width:0.5;" width="136" x="2366.5" y="212.3984"/><text fill="#000000" font-family="sans-serif" font-size="12" lengthAdjust="spacing" textLength="116" x="2376.5" y="234">Set scroll_offset to 0</text><rect fill="#F1F1F1" height="34.1328" rx="12.5" ry="12.5" style="stroke:#181818;stroke-width:0.5;" width="442" x="2213.5" y="266.5313"/><text fill="#000000" font-family="sans-serif" font-size="12" lengthAdjust="spacing" textLength="422" x="2223.5" y="288.1328">Set max_items to the maximum number of items displayed on the screen</text><rect fill="#F1F1F1" height="34.1328" rx="12.5" ry="12.5" style="stroke:#181818;stroke-width:0.5;" width="114" x="2377.5" y="376.7988"/><text fill="#000000" font-family="sans-serif" font-size="12" lengthAdjust="spacing" textLength="94" x="2387.5" y="398.4004">Clear the screen</text><rect fill="#F1F1F1" height="34.1328" rx="12.5" ry="12.5" style="stroke:#181818;stroke-width:0.5;" width="214" x="2327.5" y="430.9316"/><text fill="#000000" font-family="sans-serif" font-size="12" lengthAdjust="spacing" textLength="194" x="2337.5" y="452.5332">Display the current directory path</text><rect fill="#F1F1F1" height="34.1328" rx="12.5" ry="12.5" style="stroke:#181818;stroke-width:0.5;" width="254" x="2307.5" y="533.542"/><text fill="#000000" font-family="sans-serif" font-size="12" lengthAdjust="spacing" textLength="234" x="2317.5" y="555.1436">Display the selected path for copy/move</text><polygon fill="#F1F1F1" points="2321,485.0645,2548,485.0645,2560,497.0645,2548,509.0645,2321,509.0645,2309,497.0645,2321,485.0645" style="stroke:#181818;stroke-width:0.5;"/><text fill="#000000" font-family="sans-serif" font-size="11" lengthAdjust="spacing" textLength="18" x="2438.5" y="519.6992">yes</text><text fill="#000000" font-family="sans-serif" font-size="11" lengthAdjust="spacing" textLength="227" x="2321" y="501.2217">selected_path_for_copy_move is not None</text><polygon fill="#F1F1F1" points="2434.5,587.6748,2446.5,599.6748,2434.5,611.6748,2422.5,599.6748,2434.5,587.6748" style="stroke:#181818;stroke-width:0.5;"/><rect fill="#F1F1F1" height="34.1328" rx="12.5" ry="12.5" style="stroke:#181818;stroke-width:0.5;" width="497" x="2186" y="631.6748"/><text fill="#000000" font-family="sans-serif" font-size="12" lengthAdjust="spacing" textLength="477" x="2196" y="653.2764">Get the list of directories and files in the current directory, filtered by show_hidden</text><rect fill="#F1F1F1" height="34.1328" rx="12.5" ry="12.5" style="stroke:#181818;stroke-width:0.5;" width="265" x="2302" y="685.8076"/><text fill="#000000" font-family="sans-serif" font-size="12" lengthAdjust="spacing" textLength="245" x="2312" y="707.4092">Sort the directories and files alphabetically</text><rect fill="#F1F1F1" height="34.1328" rx="12.5" ry="12.5" style="stroke:#181818;stroke-width:0.5;" width="388" x="2240.5" y="739.9404"/><text fill="#000000" font-family="sans-serif" font-size="12" lengthAdjust="spacing" textLength="226" x="2250.5" y="761.542">Create a list of items consisting of ("...",</text><text fill="#000000" font-family="monospace" font-size="12" lengthAdjust="spacing" textLength="7" x="2480.5" y="761.2432">,</text><text fill="#000000" font-family="sans-serif" font-size="12" lengthAdjust="spacing" textLength="124" x="2494.5" y="761.542">) + directories + files</text><rect fill="#F1F1F1" height="34.1328" rx="12.5" ry="12.5" style="stroke:#181818;stroke-width:0.5;" width="188" x="2340.5" y="794.0732"/><text fill="#000000" font-family="sans-serif" font-size="12" lengthAdjust="spacing" textLength="168" x="2350.5" y="815.6748">Adjust scroll_offset if needed</text><rect fill="#F1F1F1" height="34.1328" rx="12.5" ry="12.5" style="stroke:#181818;stroke-width:0.5;" width="365" x="2252" y="892.2061"/><text fill="#000000" font-family="sans-serif" font-size="12" lengthAdjust="spacing" textLength="345" x="2262" y="913.8076">for each item in items[scroll_offset:scroll_offset+max_items]</text><rect fill="#F1F1F1" height="34.1328" rx="12.5" ry="12.5" style="stroke:#181818;stroke-width:0.5;" width="173" x="2348" y="994.8164"/><text fill="#000000" font-family="sans-serif" font-size="12" lengthAdjust="spacing" textLength="153" x="2358" y="1016.418">Highlight the selected item</text><polygon fill="#F1F1F1" points="2319,946.3389,2550,946.3389,2562,958.3389,2550,970.3389,2319,970.3389,2307,958.3389,2319,946.3389" style="stroke:#181818;stroke-width:0.5;"/><text fill="#000000" font-family="sans-serif" font-size="11" lengthAdjust="spacing" textLength="18" x="2438.5" y="980.9736">yes</text><text fill="#000000" font-family="sans-serif" font-size="11" lengthAdjust="spacing" textLength="231" x="2319" y="962.4961">i + scroll_offset is equal to selected_option</text><polygon fill="#F1F1F1" points="2434.5,1048.9492,2446.5,1060.9492,2434.5,1072.9492,2422.5,1060.9492,2434.5,1048.9492" style="stroke:#181818;stroke-width:0.5;"/><rect fill="#F1F1F1" height="34.1328" rx="12.5" ry="12.5" style="stroke:#181818;stroke-width:0.5;" width="113" x="2378" y="1092.9492"/><text fill="#000000" font-family="sans-serif" font-size="12" lengthAdjust="spacing" textLength="93" x="2388" y="1114.5508">Display the item</text><polygon fill="#F1F1F1" points="2434.5,848.2061,2446.5,860.2061,2434.5,872.2061,2422.5,860.2061,2434.5,848.2061" style="stroke:#181818;stroke-width:0.5;"/><polygon fill="#F1F1F1" points="2396.5,1147.082,2472.5,1147.082,2484.5,1159.082,2472.5,1171.082,2396.5,1171.082,2384.5,1159.082,2396.5,1147.082" style="stroke:#181818;stroke-width:0.5;"/><text fill="#000000" font-family="sans-serif" font-size="11" lengthAdjust="spacing" textLength="76" x="2396.5" y="1163.2393">i &lt; max_items</text><rect fill="#F1F1F1" height="34.1328" rx="12.5" ry="12.5" style="stroke:#181818;stroke-width:0.5;" width="537" x="2166" y="1191.082"/><text fill="#000000" font-family="sans-serif" font-size="12" lengthAdjust="spacing" textLength="517" x="2176" y="1212.6836">Display the placeholder functions (Zip, Unzip, View, Edit, Copy, Move, Paste, Delete, Quit)</text><rect fill="#F1F1F1" height="34.1328" rx="12.5" ry="12.5" style="stroke:#181818;stroke-width:0.5;" width="128" x="2370.5" y="1245.2148"/><text fill="#000000" font-family="sans-serif" font-size="12" lengthAdjust="spacing" textLength="108" x="2380.5" y="1266.8164">Refresh the screen</text><rect fill="#F1F1F1" height="34.1328" rx="12.5" ry="12.5" style="stroke:#181818;stroke-width:0.5;" width="201" x="2334" y="1299.3477"/><text fill="#000000" font-family="sans-serif" font-size="12" lengthAdjust="spacing" textLength="181" x="2344" y="1320.9492">Get the key input from the user</text><polygon fill="#F1F1F1" points="48,1353.4805,331,1353.4805,343,1365.4805,331,1377.4805,48,1377.4805,36,1365.4805,48,1353.4805" style="stroke:#181818;stroke-width:0.5;"/><text fill="#000000" font-family="sans-serif" font-size="11" lengthAdjust="spacing" textLength="18" x="193.5" y="1388.1152">yes</text><text fill="#000000" font-family="sans-serif" font-size="11" lengthAdjust="spacing" textLength="283" x="48" y="1369.6377">key is UP arrow and selected_option is greater than 0</text><rect fill="#F1F1F1" height="34.1328" rx="12.5" ry="12.5" style="stroke:#181818;stroke-width:0.5;" width="198" x="90.5" y="1409.6152"/><text fill="#000000" font-family="sans-serif" font-size="12" lengthAdjust="spacing" textLength="178" x="100.5" y="1431.2168">Decrease selected_option by 1</text><polygon fill="#F1F1F1" points="375,1353.4805,807,1353.4805,819,1365.4805,807,1377.4805,375,1377.4805,363,1365.4805,375,1353.4805" style="stroke:#181818;stroke-width:0.5;"/><text fill="#000000" font-family="sans-serif" font-size="11" lengthAdjust="spacing" textLength="18" x="595" y="1388.1152">yes</text><text fill="#000000" font-family="sans-serif" font-size="11" lengthAdjust="spacing" textLength="432" x="375" y="1369.6377">key is DOWN arrow and selected_option is less than the number of items minus 1</text><rect fill="#F1F1F1" height="34.1328" rx="12.5" ry="12.5" style="stroke:#181818;stroke-width:0.5;" width="192" x="495" y="1409.6152"/><text fill="#000000" font-family="sans-serif" font-size="12" lengthAdjust="spacing" textLength="172" x="505" y="1431.2168">Increase selected_option by 1</text><polygon fill="#F1F1F1" points="1073.5,1353.4805,1140.5,1353.4805,1152.5,1365.4805,1140.5,1377.4805,1073.5,1377.4805,1061.5,1365.4805,1073.5,1353.4805" style="stroke:#181818;stroke-width:0.5;"/><text fill="#000000" font-family="sans-serif" font-size="11" lengthAdjust="spacing" textLength="18" x="1111" y="1388.1152">yes</text><text fill="#000000" font-family="sans-serif" font-size="11" lengthAdjust="spacing" textLength="67" x="1073.5" y="1369.6377">key is ENTER</text><polygon fill="#F1F1F1" points="894.5,1434.6152,1001.5,1434.6152,1013.5,1446.6152,1001.5,1458.6152,894.5,1458.6152,882.5,1446.6152,894.5,1434.6152" style="stroke:#181818;stroke-width:0.5;"/><text fill="#000000" font-family="sans-serif" font-size="11" lengthAdjust="spacing" textLength="18" x="952" y="1469.25">yes</text><text fill="#000000" font-family="sans-serif" font-size="11" lengthAdjust="spacing" textLength="107" x="894.5" y="1450.7725">selected_option is 0</text><rect fill="#F1F1F1" height="34.1328" rx="12.5" ry="12.5" style="stroke:#181818;stroke-width:0.5;" width="238" x="829" y="1491.5703"/><text fill="#000000" font-family="sans-serif" font-size="12" lengthAdjust="spacing" textLength="218" x="839" y="1513.1719">Set current_dir to the parent directory</text><polygon fill="#F1F1F1" points="1112.5,1434.6152,1309.5,1434.6152,1321.5,1446.6152,1309.5,1458.6152,1112.5,1458.6152,1100.5,1446.6152,1112.5,1434.6152" style="stroke:#181818;stroke-width:0.5;"/><text fill="#000000" font-family="sans-serif" font-size="11" lengthAdjust="spacing" textLength="18" x="1215" y="1469.25">yes</text><text fill="#000000" font-family="sans-serif" font-size="11" lengthAdjust="spacing" textLength="197" x="1112.5" y="1450.7725">item at selected_option is a directory</text><rect fill="#F1F1F1" height="34.1328" rx="12.5" ry="12.5" style="stroke:#181818;stroke-width:0.5;" width="248" x="1087" y="1491.5703"/><text fill="#000000" font-family="sans-serif" font-size="12" lengthAdjust="spacing" textLength="228" x="1097" y="1513.1719">Set current_dir to the selected directory</text><polygon fill="#F1F1F1" points="1588,1353.4805,1664,1353.4805,1676,1365.4805,1664,1377.4805,1588,1377.4805,1576,1365.4805,1588,1353.4805" style="stroke:#181818;stroke-width:0.5;"/><text fill="#000000" font-family="sans-serif" font-size="11" lengthAdjust="spacing" textLength="18" x="1630" y="1388.1152">yes</text><text fill="#000000" font-family="sans-serif" font-size="11" lengthAdjust="spacing" textLength="76" x="1588" y="1369.6377">key is "1" (Zip)</text><rect fill="#F1F1F1" height="34.1328" rx="12.5" ry="12.5" style="stroke:#181818;stroke-width:0.5;" width="526" x="1363" y="1409.6152"/><text fill="#000000" font-family="sans-serif" font-size="12" lengthAdjust="spacing" textLength="506" x="1373" y="1431.2168">Call the zip_file_or_folder function with current_dir and the selected item as parameters</text><polygon fill="#F1F1F1" points="2095,1353.4805,2185,1353.4805,2197,1365.4805,2185,1377.4805,2095,1377.4805,2083,1365.4805,2095,1353.4805" style="stroke:#181818;stroke-width:0.5;"/><text fill="#000000" font-family="sans-serif" font-size="11" lengthAdjust="spacing" textLength="18" x="2144" y="1388.1152">yes</text><text fill="#000000" font-family="sans-serif" font-size="11" lengthAdjust="spacing" textLength="90" x="2095" y="1369.6377">key is "2" (Unzip)</text><rect fill="#F1F1F1" height="34.1328" rx="12.5" ry="12.5" style="stroke:#181818;stroke-width:0.5;" width="482" x="1899" y="1409.6152"/><text fill="#000000" font-family="sans-serif" font-size="12" lengthAdjust="spacing" textLength="462" x="1909" y="1431.2168">Call the unzip_file function with current_dir and the selected item as parameters</text><polygon fill="#F1F1F1" points="2509,1353.4805,2592,1353.4805,2604,1365.4805,2592,1377.4805,2509,1377.4805,2497,1365.4805,2509,1353.4805" style="stroke:#181818;stroke-width:0.5;"/><text fill="#000000" font-family="sans-serif" font-size="11" lengthAdjust="spacing" textLength="18" x="2554.5" y="1388.1152">yes</text><text fill="#000000" font-family="sans-serif" font-size="11" lengthAdjust="spacing" textLength="83" x="2509" y="1369.6377">key is "3" (View)</text><rect fill="#F1F1F1" height="34.1328" rx="12.5" ry="12.5" style="stroke:#181818;stroke-width:0.5;" width="114" x="2493.5" y="1458.0928"/><text fill="#000000" font-family="sans-serif" font-size="12" lengthAdjust="spacing" textLength="94" x="2503.5" y="1479.6943">Clear the screen</text><rect fill="#F1F1F1" height="34.1328" rx="12.5" ry="12.5" style="stroke:#181818;stroke-width:0.5;" width="279" x="2411" y="1527.2256"/><text fill="#000000" font-family="sans-serif" font-size="12" lengthAdjust="spacing" textLength="259" x="2421" y="1548.8271">Read the selected file and display its content</text><rect fill="#F1F1F1" height="34.1328" rx="12.5" ry="12.5" style="stroke:#181818;stroke-width:0.5;" width="254" x="2423.5" y="1591.8809"/><text fill="#000000" font-family="sans-serif" font-size="12" lengthAdjust="spacing" textLength="234" x="2433.5" y="1613.4824">Wait for user input to exit the view mode</text><polygon fill="#F1F1F1" points="2458.5,1409.6152,2642.5,1409.6152,2654.5,1421.6152,2642.5,1433.6152,2458.5,1433.6152,2446.5,1421.6152,2458.5,1409.6152" style="stroke:#181818;stroke-width:0.5;"/><text fill="#000000" font-family="sans-serif" font-size="11" lengthAdjust="spacing" textLength="18" x="2554.5" y="1444.25">yes</text><text fill="#000000" font-family="sans-serif" font-size="11" lengthAdjust="spacing" textLength="184" x="2458.5" y="1425.7725">the selected item is not a directory</text><polygon fill="#F1F1F1" points="2550.5,1646.0137,2562.5,1658.0137,2550.5,1670.0137,2538.5,1658.0137,2550.5,1646.0137" style="stroke:#181818;stroke-width:0.5;"/><polygon fill="#F1F1F1" points="2910.5,1353.4805,2989.5,1353.4805,3001.5,1365.4805,2989.5,1377.4805,2910.5,1377.4805,2898.5,1365.4805,2910.5,1353.4805" style="stroke:#181818;stroke-width:0.5;"/><text fill="#000000" font-family="sans-serif" font-size="11" lengthAdjust="spacing" textLength="18" x="2954" y="1388.1152">yes</text><text fill="#000000" font-family="sans-serif" font-size="11" lengthAdjust="spacing" textLength="79" x="2910.5" y="1369.6377">key is "4" (Edit)</text><rect fill="#F1F1F1" height="34.1328" rx="12.5" ry="12.5" style="stroke:#181818;stroke-width:0.5;" width="472" x="2714" y="1409.6152"/><text fill="#000000" font-family="sans-serif" font-size="12" lengthAdjust="spacing" textLength="452" x="2724" y="1431.2168">Call the edit_file function with current_dir and the selected item as parameters</text><polygon fill="#F1F1F1" points="3347.5,1353.4805,3434.5,1353.4805,3446.5,1365.4805,3434.5,1377.4805,3347.5,1377.4805,3335.5,1365.4805,3347.5,1353.4805" style="stroke:#181818;stroke-width:0.5;"/><text fill="#000000" font-family="sans-serif" font-size="11" lengthAdjust="spacing" textLength="18" x="3395" y="1388.1152">yes</text><text fill="#000000" font-family="sans-serif" font-size="11" lengthAdjust="spacing" textLength="87" x="3347.5" y="1369.6377">key is "5" (Copy)</text><rect fill="#F1F1F1" height="34.1328" rx="12.5" ry="12.5" style="stroke:#181818;stroke-width:0.5;" width="390" x="3196" y="1409.6152"/><text fill="#000000" font-family="sans-serif" font-size="12" lengthAdjust="spacing" textLength="370" x="3206" y="1431.2168">Set selected_path_for_copy_move to (selected item path, "copy")</text><polygon fill="#F1F1F1" points="3749.5,1353.4805,3836.5,1353.4805,3848.5,1365.4805,3836.5,1377.4805,3749.5,1377.4805,3737.5,1365.4805,3749.5,1353.4805" style="stroke:#181818;stroke-width:0.5;"/><text fill="#000000" font-family="sans-serif" font-size="11" lengthAdjust="spacing" textLength="18" x="3797" y="1388.1152">yes</text><text fill="#000000" font-family="sans-serif" font-size="11" lengthAdjust="spacing" textLength="87" x="3749.5" y="1369.6377">key is "6" (Move)</text><rect fill="#F1F1F1" height="34.1328" rx="12.5" ry="12.5" style="stroke:#181818;stroke-width:0.5;" width="394" x="3596" y="1409.6152"/><text fill="#000000" font-family="sans-serif" font-size="12" lengthAdjust="spacing" textLength="374" x="3606" y="1431.2168">Set selected_path_for_copy_move to (selected item path, "move")</text><polygon fill="#F1F1F1" points="4127,1353.4805,4214,1353.4805,4226,1365.4805,4214,1377.4805,4127,1377.4805,4115,1365.4805,4127,1353.4805" style="stroke:#181818;stroke-width:0.5;"/><text fill="#000000" font-family="sans-serif" font-size="11" lengthAdjust="spacing" textLength="18" x="4174.5" y="1388.1152">yes</text><text fill="#000000" font-family="sans-serif" font-size="11" lengthAdjust="spacing" textLength="87" x="4127" y="1369.6377">key is "7" (Paste)</text><rect fill="#F1F1F1" height="34.1328" rx="12.5" ry="12.5" style="stroke:#181818;stroke-width:0.5;" width="341" x="4000" y="1458.0928"/><text fill="#000000" font-family="sans-serif" font-size="12" lengthAdjust="spacing" textLength="321" x="4010" y="1479.6943">Copy or move the selected path to the current directory</text><rect fill="#F1F1F1" height="34.1328" rx="12.5" ry="12.5" style="stroke:#181818;stroke-width:0.5;" width="277" x="4032" y="1527.2256"/><text fill="#000000" font-family="sans-serif" font-size="12" lengthAdjust="spacing" textLength="257" x="4042" y="1548.8271">Reset selected_path_for_copy_move to None</text><polygon fill="#F1F1F1" points="4057,1409.6152,4284,1409.6152,4296,1421.6152,4284,1433.6152,4057,1433.6152,4045,1421.6152,4057,1409.6152" style="stroke:#181818;stroke-width:0.5;"/><text fill="#000000" font-family="sans-serif" font-size="11" lengthAdjust="spacing" textLength="18" x="4174.5" y="1444.25">yes</text><text fill="#000000" font-family="sans-serif" font-size="11" lengthAdjust="spacing" textLength="227" x="4057" y="1425.7725">selected_path_for_copy_move is not None</text><polygon fill="#F1F1F1" points="4170.5,1581.3584,4182.5,1593.3584,4170.5,1605.3584,4158.5,1593.3584,4170.5,1581.3584" style="stroke:#181818;stroke-width:0.5;"/><polygon fill="#F1F1F1" points="4458,1353.4805,4550,1353.4805,4562,1365.4805,4550,1377.4805,4458,1377.4805,4446,1365.4805,4458,1353.4805" style="stroke:#181818;stroke-width:0.5;"/><text fill="#000000" font-family="sans-serif" font-size="11" lengthAdjust="spacing" textLength="18" x="4508" y="1388.1152">yes</text><text fill="#000000" font-family="sans-serif" font-size="11" lengthAdjust="spacing" textLength="92" x="4458" y="1369.6377">key is "8" (Delete)</text><rect fill="#F1F1F1" height="34.1328" rx="12.5" ry="12.5" style="stroke:#181818;stroke-width:0.5;" width="278" x="4365" y="1409.6152"/><text fill="#000000" font-family="sans-serif" font-size="12" lengthAdjust="spacing" textLength="258" x="4375" y="1431.2168">Move the selected item to the trash directory</text><rect fill="#F1F1F1" height="34.1328" rx="12.5" ry="12.5" style="stroke:#181818;stroke-width:0.5;" width="264" x="4372" y="1478.748"/><text fill="#000000" font-family="sans-serif" font-size="12" lengthAdjust="spacing" textLength="244" x="4382" y="1500.3496">Display a message confirming the deletion</text><polygon fill="#F1F1F1" points="4675,1353.4805,4757,1353.4805,4769,1365.4805,4757,1377.4805,4675,1377.4805,4663,1365.4805,4675,1353.4805" style="stroke:#181818;stroke-width:0.5;"/><text fill="#000000" font-family="sans-serif" font-size="11" lengthAdjust="spacing" textLength="18" x="4720" y="1388.1152">yes</text><text fill="#000000" font-family="sans-serif" font-size="11" lengthAdjust="spacing" textLength="82" x="4675" y="1369.6377">key is "9" (Quit)</text><rect fill="#F1F1F1" height="34.1328" rx="12.5" ry="12.5" style="stroke:#181818;stroke-width:0.5;" width="92" x="4670" y="1409.6152"/><text fill="#000000" font-family="sans-serif" font-size="12" lengthAdjust="spacing" textLength="72" x="4680" y="1431.2168">Exit the loop</text><ellipse cx="2434.5" cy="1720.0137" fill="none" rx="10" ry="10" style="stroke:#222222;stroke-width:1.5;"/><line style="stroke:#222222;stroke-width:2.5;" x1="2428.3128" x2="2440.6872" y1="1713.8265" y2="1726.2009"/><line style="stroke:#222222;stroke-width:2.5;" x1="2440.6872" x2="2428.3128" y1="1713.8265" y2="1726.2009"/><polygon fill="#F1F1F1" points="2422,320.6641,2447,320.6641,2459,332.6641,2447,344.6641,2422,344.6641,2410,332.6641,2422,320.6641" style="stroke:#181818;stroke-width:0.5;"/><text fill="#000000" font-family="sans-serif" font-size="11" lengthAdjust="spacing" textLength="22" x="2438.5" y="355.2988">true</text><text fill="#000000" font-family="sans-serif" font-size="11" lengthAdjust="spacing" textLength="25" x="2422" y="336.8213">True</text><line style="stroke:#181818;stroke-width:1.0;" x1="2434.5" x2="2434.5" y1="30" y2="50"/><polygon fill="#181818" points="2430.5,40,2434.5,50,2438.5,40,2434.5,44" style="stroke:#181818;stroke-width:1.0;"/><line style="stroke:#181818;stroke-width:1.0;" x1="2434.5" x2="2434.5" y1="84.1328" y2="104.1328"/><polygon fill="#181818" points="2430.5,94.1328,2434.5,104.1328,2438.5,94.1328,2434.5,98.1328" style="stroke:#181818;stroke-width:1.0;"/><line style="stroke:#181818;stroke-width:1.0;" x1="2434.5" x2="2434.5" y1="138.2656" y2="158.2656"/><polygon fill="#181818" points="2430.5,148.2656,2434.5,158.2656,2438.5,148.2656,2434.5,152.2656" style="stroke:#181818;stroke-width:1.0;"/><line style="stroke:#181818;stroke-width:1.0;" x1="2434.5" x2="2434.5" y1="192.3984" y2="212.3984"/><polygon fill="#181818" points="2430.5,202.3984,2434.5,212.3984,2438.5,202.3984,2434.5,206.3984" style="stroke:#181818;stroke-width:1.0;"/><line style="stroke:#181818;stroke-width:1.0;" x1="2434.5" x2="2434.5" y1="246.5313" y2="266.5313"/><polygon fill="#181818" points="2430.5,256.5313,2434.5,266.5313,2438.5,256.5313,2434.5,260.5313" style="stroke:#181818;stroke-width:1.0;"/><line style="stroke:#181818;stroke-width:1.0;" x1="2434.5" x2="2434.5" y1="410.9316" y2="430.9316"/><polygon fill="#181818" points="2430.5,420.9316,2434.5,430.9316,2438.5,420.9316,2434.5,424.9316" style="stroke:#181818;stroke-width:1.0;"/><line style="stroke:#181818;stroke-width:1.0;" x1="2434.5" x2="2434.5" y1="509.0645" y2="533.542"/><polygon fill="#181818" points="2430.5,523.542,2434.5,533.542,2438.5,523.542,2434.5,527.542" style="stroke:#181818;stroke-width:1.0;"/><line style="stroke:#181818;stroke-width:1.0;" x1="2560" x2="2572" y1="497.0645" y2="497.0645"/><polygon fill="#181818" points="2568,540.6084,2572,550.6084,2576,540.6084,2572,544.6084" style="stroke:#181818;stroke-width:1.0;"/><line style="stroke:#181818;stroke-width:1.0;" x1="2572" x2="2572" y1="497.0645" y2="599.6748"/><line style="stroke:#181818;stroke-width:1.0;" x1="2572" x2="2446.5" y1="599.6748" y2="599.6748"/><polygon fill="#181818" points="2456.5,595.6748,2446.5,599.6748,2456.5,603.6748,2452.5,599.6748" style="stroke:#181818;stroke-width:1.0;"/><line style="stroke:#181818;stroke-width:1.0;" x1="2434.5" x2="2434.5" y1="567.6748" y2="587.6748"/><polygon fill="#181818" points="2430.5,577.6748,2434.5,587.6748,2438.5,577.6748,2434.5,581.6748" style="stroke:#181818;stroke-width:1.0;"/><line style="stroke:#181818;stroke-width:1.0;" x1="2434.5" x2="2434.5" y1="465.0645" y2="485.0645"/><polygon fill="#181818" points="2430.5,475.0645,2434.5,485.0645,2438.5,475.0645,2434.5,479.0645" style="stroke:#181818;stroke-width:1.0;"/><line style="stroke:#181818;stroke-width:1.0;" x1="2434.5" x2="2434.5" y1="611.6748" y2="631.6748"/><polygon fill="#181818" points="2430.5,621.6748,2434.5,631.6748,2438.5,621.6748,2434.5,625.6748" style="stroke:#181818;stroke-width:1.0;"/><line style="stroke:#181818;stroke-width:1.0;" x1="2434.5" x2="2434.5" y1="665.8076" y2="685.8076"/><polygon fill="#181818" points="2430.5,675.8076,2434.5,685.8076,2438.5,675.8076,2434.5,679.8076" style="stroke:#181818;stroke-width:1.0;"/><line style="stroke:#181818;stroke-width:1.0;" x1="2434.5" x2="2434.5" y1="719.9404" y2="739.9404"/><polygon fill="#181818" points="2430.5,729.9404,2434.5,739.9404,2438.5,729.9404,2434.5,733.9404" style="stroke:#181818;stroke-width:1.0;"/><line style="stroke:#181818;stroke-width:1.0;" x1="2434.5" x2="2434.5" y1="774.0732" y2="794.0732"/><polygon fill="#181818" points="2430.5,784.0732,2434.5,794.0732,2438.5,784.0732,2434.5,788.0732" style="stroke:#181818;stroke-width:1.0;"/><line style="stroke:#181818;stroke-width:1.0;" x1="2434.5" x2="2434.5" y1="970.3389" y2="994.8164"/><polygon fill="#181818" points="2430.5,984.8164,2434.5,994.8164,2438.5,984.8164,2434.5,988.8164" style="stroke:#181818;stroke-width:1.0;"/><line style="stroke:#181818;stroke-width:1.0;" x1="2562" x2="2574" y1="958.3389" y2="958.3389"/><polygon fill="#181818" points="2570,1001.8828,2574,1011.8828,2578,1001.8828,2574,1005.8828" style="stroke:#181818;stroke-width:1.0;"/><line style="stroke:#181818;stroke-width:1.0;" x1="2574" x2="2574" y1="958.3389" y2="1060.9492"/><line style="stroke:#181818;stroke-width:1.0;" x1="2574" x2="2446.5" y1="1060.9492" y2="1060.9492"/><polygon fill="#181818" points="2456.5,1056.9492,2446.5,1060.9492,2456.5,1064.9492,2452.5,1060.9492" style="stroke:#181818;stroke-width:1.0;"/><line style="stroke:#181818;stroke-width:1.0;" x1="2434.5" x2="2434.5" y1="1028.9492" y2="1048.9492"/><polygon fill="#181818" points="2430.5,1038.9492,2434.5,1048.9492,2438.5,1038.9492,2434.5,1042.9492" style="stroke:#181818;stroke-width:1.0;"/><line style="stroke:#181818;stroke-width:1.0;" x1="2434.5" x2="2434.5" y1="926.3389" y2="946.3389"/><polygon fill="#181818" points="2430.5,936.3389,2434.5,946.3389,2438.5,936.3389,2434.5,940.3389" style="stroke:#181818;stroke-width:1.0;"/><line style="stroke:#181818;stroke-width:1.0;" x1="2434.5" x2="2434.5" y1="1072.9492" y2="1092.9492"/><polygon fill="#181818" points="2430.5,1082.9492,2434.5,1092.9492,2438.5,1082.9492,2434.5,1086.9492" style="stroke:#181818;stroke-width:1.0;"/><line style="stroke:#181818;stroke-width:1.0;" x1="2434.5" x2="2434.5" y1="872.2061" y2="892.2061"/><polygon fill="#181818" points="2430.5,882.2061,2434.5,892.2061,2438.5,882.2061,2434.5,886.2061" style="stroke:#181818;stroke-width:1.0;"/><line style="stroke:#181818;stroke-width:1.0;" x1="2484.5" x2="2629" y1="1159.082" y2="1159.082"/><polygon fill="#181818" points="2625,1021.8828,2629,1011.8828,2633,1021.8828,2629,1017.8828" style="stroke:#181818;stroke-width:1.0;"/><line style="stroke:#181818;stroke-width:1.0;" x1="2629" x2="2629" y1="860.2061" y2="1159.082"/><line style="stroke:#181818;stroke-width:1.0;" x1="2629" x2="2446.5" y1="860.2061" y2="860.2061"/><polygon fill="#181818" points="2456.5,856.2061,2446.5,860.2061,2456.5,864.2061,2452.5,860.2061" style="stroke:#181818;stroke-width:1.0;"/><line style="stroke:#181818;stroke-width:1.0;" x1="2434.5" x2="2434.5" y1="1127.082" y2="1147.082"/><polygon fill="#181818" points="2430.5,1137.082,2434.5,1147.082,2438.5,1137.082,2434.5,1141.082" style="stroke:#181818;stroke-width:1.0;"/><line style="stroke:#181818;stroke-width:1.0;" x1="2434.5" x2="2434.5" y1="828.2061" y2="848.2061"/><polygon fill="#181818" points="2430.5,838.2061,2434.5,848.2061,2438.5,838.2061,2434.5,842.2061" style="stroke:#181818;stroke-width:1.0;"/><line style="stroke:#181818;stroke-width:1.0;" x1="2434.5" x2="2434.5" y1="1171.082" y2="1191.082"/><polygon fill="#181818" points="2430.5,1181.082,2434.5,1191.082,2438.5,1181.082,2434.5,1185.082" style="stroke:#181818;stroke-width:1.0;"/><line style="stroke:#181818;stroke-width:1.0;" x1="2434.5" x2="2434.5" y1="1225.2148" y2="1245.2148"/><polygon fill="#181818" points="2430.5,1235.2148,2434.5,1245.2148,2438.5,1235.2148,2434.5,1239.2148" style="stroke:#181818;stroke-width:1.0;"/><line style="stroke:#181818;stroke-width:1.0;" x1="2434.5" x2="2434.5" y1="1279.3477" y2="1299.3477"/><polygon fill="#181818" points="2430.5,1289.3477,2434.5,1299.3477,2438.5,1289.3477,2434.5,1293.3477" style="stroke:#181818;stroke-width:1.0;"/><line style="stroke:#181818;stroke-width:1.0;" x1="948" x2="948" y1="1458.6152" y2="1491.5703"/><polygon fill="#181818" points="944,1481.5703,948,1491.5703,952,1481.5703,948,1485.5703" style="stroke:#181818;stroke-width:1.0;"/><line style="stroke:#181818;stroke-width:1.0;" x1="948" x2="948" y1="1525.7031" y2="1596.2256"/><polygon fill="#181818" points="944,1586.2256,948,1596.2256,952,1586.2256,948,1590.2256" style="stroke:#181818;stroke-width:1.0;"/><line style="stroke:#181818;stroke-width:1.0;" x1="1211" x2="1211" y1="1458.6152" y2="1491.5703"/><polygon fill="#181818" points="1207,1481.5703,1211,1491.5703,1215,1481.5703,1211,1485.5703" style="stroke:#181818;stroke-width:1.0;"/><line style="stroke:#181818;stroke-width:1.0;" x1="1211" x2="1211" y1="1525.7031" y2="1596.2256"/><polygon fill="#181818" points="1207,1586.2256,1211,1596.2256,1215,1586.2256,1211,1590.2256" style="stroke:#181818;stroke-width:1.0;"/><line style="stroke:#181818;stroke-width:1.0;" x1="1013.5" x2="1100.5" y1="1446.6152" y2="1446.6152"/><polygon fill="#181818" points="1090.5,1442.6152,1100.5,1446.6152,1090.5,1450.6152,1094.5,1446.6152" style="stroke:#181818;stroke-width:1.0;"/><line style="stroke:#181818;stroke-width:1.0;" x1="1107" x2="1107" y1="1377.4805" y2="1409.6152"/><line style="stroke:#181818;stroke-width:1.0;" x1="1107" x2="948" y1="1409.6152" y2="1409.6152"/><line style="stroke:#181818;stroke-width:1.0;" x1="948" x2="948" y1="1409.6152" y2="1434.6152"/><polygon fill="#181818" points="944,1424.6152,948,1434.6152,952,1424.6152,948,1428.6152" style="stroke:#181818;stroke-width:1.0;"/><line style="stroke:#181818;stroke-width:1.0;" x1="1321.5" x2="1349" y1="1446.6152" y2="1446.6152"/><line style="stroke:#181818;stroke-width:1.0;" x1="1349" x2="1349" y1="1446.6152" y2="1596.2256"/><polygon fill="#181818" points="1345,1586.2256,1349,1596.2256,1353,1586.2256,1349,1590.2256" style="stroke:#181818;stroke-width:1.0;"/><line style="stroke:#181818;stroke-width:1.0;" x1="948" x2="1349" y1="1596.2256" y2="1596.2256"/><line style="stroke:#181818;stroke-width:1.0;" x1="2550.5" x2="2550.5" y1="1492.2256" y2="1527.2256"/><polygon fill="#181818" points="2546.5,1517.2256,2550.5,1527.2256,2554.5,1517.2256,2550.5,1521.2256" style="stroke:#181818;stroke-width:1.0;"/><line style="stroke:#181818;stroke-width:1.0;" x1="2550.5" x2="2550.5" y1="1561.3584" y2="1591.8809"/><polygon fill="#181818" points="2546.5,1581.8809,2550.5,1591.8809,2554.5,1581.8809,2550.5,1585.8809" style="stroke:#181818;stroke-width:1.0;"/><line style="stroke:#181818;stroke-width:1.0;" x1="2550.5" x2="2550.5" y1="1433.6152" y2="1458.0928"/><polygon fill="#181818" points="2546.5,1448.0928,2550.5,1458.0928,2554.5,1448.0928,2550.5,1452.0928" style="stroke:#181818;stroke-width:1.0;"/><line style="stroke:#181818;stroke-width:1.0;" x1="2654.5" x2="2700" y1="1421.6152" y2="1421.6152"/><polygon fill="#181818" points="2696,1534.292,2700,1544.292,2704,1534.292,2700,1538.292" style="stroke:#181818;stroke-width:1.0;"/><line style="stroke:#181818;stroke-width:1.0;" x1="2700" x2="2700" y1="1421.6152" y2="1658.0137"/><line style="stroke:#181818;stroke-width:1.0;" x1="2700" x2="2562.5" y1="1658.0137" y2="1658.0137"/><polygon fill="#181818" points="2572.5,1654.0137,2562.5,1658.0137,2572.5,1662.0137,2568.5,1658.0137" style="stroke:#181818;stroke-width:1.0;"/><line style="stroke:#181818;stroke-width:1.0;" x1="2550.5" x2="2550.5" y1="1626.0137" y2="1646.0137"/><polygon fill="#181818" points="2546.5,1636.0137,2550.5,1646.0137,2554.5,1636.0137,2550.5,1640.0137" style="stroke:#181818;stroke-width:1.0;"/><line style="stroke:#181818;stroke-width:1.0;" x1="4170.5" x2="4170.5" y1="1492.2256" y2="1527.2256"/><polygon fill="#181818" points="4166.5,1517.2256,4170.5,1527.2256,4174.5,1517.2256,4170.5,1521.2256" style="stroke:#181818;stroke-width:1.0;"/><line style="stroke:#181818;stroke-width:1.0;" x1="4170.5" x2="4170.5" y1="1433.6152" y2="1458.0928"/><polygon fill="#181818" points="4166.5,1448.0928,4170.5,1458.0928,4174.5,1448.0928,4170.5,1452.0928" style="stroke:#181818;stroke-width:1.0;"/><line style="stroke:#181818;stroke-width:1.0;" x1="4296" x2="4351" y1="1421.6152" y2="1421.6152"/><polygon fill="#181818" points="4347,1499.7256,4351,1509.7256,4355,1499.7256,4351,1503.7256" style="stroke:#181818;stroke-width:1.0;"/><line style="stroke:#181818;stroke-width:1.0;" x1="4351" x2="4351" y1="1421.6152" y2="1593.3584"/><line style="stroke:#181818;stroke-width:1.0;" x1="4351" x2="4182.5" y1="1593.3584" y2="1593.3584"/><polygon fill="#181818" points="4192.5,1589.3584,4182.5,1593.3584,4192.5,1597.3584,4188.5,1593.3584" style="stroke:#181818;stroke-width:1.0;"/><line style="stroke:#181818;stroke-width:1.0;" x1="4170.5" x2="4170.5" y1="1561.3584" y2="1581.3584"/><polygon fill="#181818" points="4166.5,1571.3584,4170.5,1581.3584,4174.5,1571.3584,4170.5,1575.3584" style="stroke:#181818;stroke-width:1.0;"/><line style="stroke:#181818;stroke-width:1.0;" x1="4504" x2="4504" y1="1443.748" y2="1478.748"/><polygon fill="#181818" points="4500,1468.748,4504,1478.748,4508,1468.748,4504,1472.748" style="stroke:#181818;stroke-width:1.0;"/><line style="stroke:#181818;stroke-width:1.0;" x1="189.5" x2="189.5" y1="1377.4805" y2="1409.6152"/><polygon fill="#181818" points="185.5,1399.6152,189.5,1409.6152,193.5,1399.6152,189.5,1403.6152" style="stroke:#181818;stroke-width:1.0;"/><line style="stroke:#181818;stroke-width:1.0;" x1="189.5" x2="189.5" y1="1443.748" y2="1690.0137"/><polygon fill="#181818" points="185.5,1680.0137,189.5,1690.0137,193.5,1680.0137,189.5,1684.0137" style="stroke:#181818;stroke-width:1.0;"/><line style="stroke:#181818;stroke-width:1.0;" x1="591" x2="591" y1="1377.4805" y2="1409.6152"/><polygon fill="#181818" points="587,1399.6152,591,1409.6152,595,1399.6152,591,1403.6152" style="stroke:#181818;stroke-width:1.0;"/><line style="stroke:#181818;stroke-width:1.0;" x1="591" x2="591" y1="1443.748" y2="1690.0137"/><polygon fill="#181818" points="587,1680.0137,591,1690.0137,595,1680.0137,591,1684.0137" style="stroke:#181818;stroke-width:1.0;"/><line style="stroke:#181818;stroke-width:1.0;" x1="1107" x2="1107" y1="1596.2256" y2="1690.0137"/><polygon fill="#181818" points="1103,1680.0137,1107,1690.0137,1111,1680.0137,1107,1684.0137" style="stroke:#181818;stroke-width:1.0;"/><line style="stroke:#181818;stroke-width:1.0;" x1="1626" x2="1626" y1="1377.4805" y2="1409.6152"/><polygon fill="#181818" points="1622,1399.6152,1626,1409.6152,1630,1399.6152,1626,1403.6152" style="stroke:#181818;stroke-width:1.0;"/><line style="stroke:#181818;stroke-width:1.0;" x1="1626" x2="1626" y1="1443.748" y2="1690.0137"/><polygon fill="#181818" points="1622,1680.0137,1626,1690.0137,1630,1680.0137,1626,1684.0137" style="stroke:#181818;stroke-width:1.0;"/><line style="stroke:#181818;stroke-width:1.0;" x1="2140" x2="2140" y1="1377.4805" y2="1409.6152"/><polygon fill="#181818" points="2136,1399.6152,2140,1409.6152,2144,1399.6152,2140,1403.6152" style="stroke:#181818;stroke-width:1.0;"/><line style="stroke:#181818;stroke-width:1.0;" x1="2140" x2="2140" y1="1443.748" y2="1690.0137"/><polygon fill="#181818" points="2136,1680.0137,2140,1690.0137,2144,1680.0137,2140,1684.0137" style="stroke:#181818;stroke-width:1.0;"/><line style="stroke:#181818;stroke-width:1.0;" x1="2550.5" x2="2550.5" y1="1377.4805" y2="1409.6152"/><polygon fill="#181818" points="2546.5,1399.6152,2550.5,1409.6152,2554.5,1399.6152,2550.5,1403.6152" style="stroke:#181818;stroke-width:1.0;"/><line style="stroke:#181818;stroke-width:1.0;" x1="2550.5" x2="2550.5" y1="1670.0137" y2="1690.0137"/><polygon fill="#181818" points="2546.5,1680.0137,2550.5,1690.0137,2554.5,1680.0137,2550.5,1684.0137" style="stroke:#181818;stroke-width:1.0;"/><line style="stroke:#181818;stroke-width:1.0;" x1="2950" x2="2950" y1="1377.4805" y2="1409.6152"/><polygon fill="#181818" points="2946,1399.6152,2950,1409.6152,2954,1399.6152,2950,1403.6152" style="stroke:#181818;stroke-width:1.0;"/><line style="stroke:#181818;stroke-width:1.0;" x1="2950" x2="2950" y1="1443.748" y2="1690.0137"/><polygon fill="#181818" points="2946,1680.0137,2950,1690.0137,2954,1680.0137,2950,1684.0137" style="stroke:#181818;stroke-width:1.0;"/><line style="stroke:#181818;stroke-width:1.0;" x1="3391" x2="3391" y1="1377.4805" y2="1409.6152"/><polygon fill="#181818" points="3387,1399.6152,3391,1409.6152,3395,1399.6152,3391,1403.6152" style="stroke:#181818;stroke-width:1.0;"/><line style="stroke:#181818;stroke-width:1.0;" x1="3391" x2="3391" y1="1443.748" y2="1690.0137"/><polygon fill="#181818" points="3387,1680.0137,3391,1690.0137,3395,1680.0137,3391,1684.0137" style="stroke:#181818;stroke-width:1.0;"/><line style="stroke:#181818;stroke-width:1.0;" x1="3793" x2="3793" y1="1377.4805" y2="1409.6152"/><polygon fill="#181818" points="3789,1399.6152,3793,1409.6152,3797,1399.6152,3793,1403.6152" style="stroke:#181818;stroke-width:1.0;"/><line style="stroke:#181818;stroke-width:1.0;" x1="3793" x2="3793" y1="1443.748" y2="1690.0137"/><polygon fill="#181818" points="3789,1680.0137,3793,1690.0137,3797,1680.0137,3793,1684.0137" style="stroke:#181818;stroke-width:1.0;"/><line style="stroke:#181818;stroke-width:1.0;" x1="4170.5" x2="4170.5" y1="1377.4805" y2="1409.6152"/><polygon fill="#181818" points="4166.5,1399.6152,4170.5,1409.6152,4174.5,1399.6152,4170.5,1403.6152" style="stroke:#181818;stroke-width:1.0;"/><line style="stroke:#181818;stroke-width:1.0;" x1="4170.5" x2="4170.5" y1="1605.3584" y2="1690.0137"/><polygon fill="#181818" points="4166.5,1680.0137,4170.5,1690.0137,4174.5,1680.0137,4170.5,1684.0137" style="stroke:#181818;stroke-width:1.0;"/><line style="stroke:#181818;stroke-width:1.0;" x1="4504" x2="4504" y1="1377.4805" y2="1409.6152"/><polygon fill="#181818" points="4500,1399.6152,4504,1409.6152,4508,1399.6152,4504,1403.6152" style="stroke:#181818;stroke-width:1.0;"/><line style="stroke:#181818;stroke-width:1.0;" x1="4504" x2="4504" y1="1512.8809" y2="1690.0137"/><polygon fill="#181818" points="4500,1680.0137,4504,1690.0137,4508,1680.0137,4504,1684.0137" style="stroke:#181818;stroke-width:1.0;"/><line style="stroke:#181818;stroke-width:1.0;" x1="4716" x2="4716" y1="1377.4805" y2="1409.6152"/><polygon fill="#181818" points="4712,1399.6152,4716,1409.6152,4720,1399.6152,4716,1403.6152" style="stroke:#181818;stroke-width:1.0;"/><line style="stroke:#181818;stroke-width:1.0;" x1="4716" x2="4716" y1="1443.748" y2="1690.0137"/><polygon fill="#181818" points="4712,1680.0137,4716,1690.0137,4720,1680.0137,4716,1684.0137" style="stroke:#181818;stroke-width:1.0;"/><line style="stroke:#181818;stroke-width:1.0;" x1="343" x2="363" y1="1365.4805" y2="1365.4805"/><polygon fill="#181818" points="353,1361.4805,363,1365.4805,353,1369.4805,357,1365.4805" style="stroke:#181818;stroke-width:1.0;"/><line style="stroke:#181818;stroke-width:1.0;" x1="819" x2="1061.5" y1="1365.4805" y2="1365.4805"/><polygon fill="#181818" points="1051.5,1361.4805,1061.5,1365.4805,1051.5,1369.4805,1055.5,1365.4805" style="stroke:#181818;stroke-width:1.0;"/><line style="stroke:#181818;stroke-width:1.0;" x1="1152.5" x2="1576" y1="1365.4805" y2="1365.4805"/><polygon fill="#181818" points="1566,1361.4805,1576,1365.4805,1566,1369.4805,1570,1365.4805" style="stroke:#181818;stroke-width:1.0;"/><line style="stroke:#181818;stroke-width:1.0;" x1="1676" x2="2083" y1="1365.4805" y2="1365.4805"/><polygon fill="#181818" points="2073,1361.4805,2083,1365.4805,2073,1369.4805,2077,1365.4805" style="stroke:#181818;stroke-width:1.0;"/><line style="stroke:#181818;stroke-width:1.0;" x1="2197" x2="2497" y1="1365.4805" y2="1365.4805"/><polygon fill="#181818" points="2487,1361.4805,2497,1365.4805,2487,1369.4805,2491,1365.4805" style="stroke:#181818;stroke-width:1.0;"/><line style="stroke:#181818;stroke-width:1.0;" x1="2604" x2="2898.5" y1="1365.4805" y2="1365.4805"/><polygon fill="#181818" points="2888.5,1361.4805,2898.5,1365.4805,2888.5,1369.4805,2892.5,1365.4805" style="stroke:#181818;stroke-width:1.0;"/><line style="stroke:#181818;stroke-width:1.0;" x1="3001.5" x2="3335.5" y1="1365.4805" y2="1365.4805"/><polygon fill="#181818" points="3325.5,1361.4805,3335.5,1365.4805,3325.5,1369.4805,3329.5,1365.4805" style="stroke:#181818;stroke-width:1.0;"/><line style="stroke:#181818;stroke-width:1.0;" x1="3446.5" x2="3737.5" y1="1365.4805" y2="1365.4805"/><polygon fill="#181818" points="3727.5,1361.4805,3737.5,1365.4805,3727.5,1369.4805,3731.5,1365.4805" style="stroke:#181818;stroke-width:1.0;"/><line style="stroke:#181818;stroke-width:1.0;" x1="3848.5" x2="4115" y1="1365.4805" y2="1365.4805"/><polygon fill="#181818" points="4105,1361.4805,4115,1365.4805,4105,1369.4805,4109,1365.4805" style="stroke:#181818;stroke-width:1.0;"/><line style="stroke:#181818;stroke-width:1.0;" x1="4226" x2="4446" y1="1365.4805" y2="1365.4805"/><polygon fill="#181818" points="4436,1361.4805,4446,1365.4805,4436,1369.4805,4440,1365.4805" style="stroke:#181818;stroke-width:1.0;"/><line style="stroke:#181818;stroke-width:1.0;" x1="4562" x2="4663" y1="1365.4805" y2="1365.4805"/><polygon fill="#181818" points="4653,1361.4805,4663,1365.4805,4653,1369.4805,4657,1365.4805" style="stroke:#181818;stroke-width:1.0;"/><line style="stroke:#181818;stroke-width:1.0;" x1="2434.5" x2="2434.5" y1="1333.4805" y2="1338.4805"/><line style="stroke:#181818;stroke-width:1.0;" x1="2434.5" x2="189.5" y1="1338.4805" y2="1338.4805"/><line style="stroke:#181818;stroke-width:1.0;" x1="189.5" x2="189.5" y1="1338.4805" y2="1353.4805"/><polygon fill="#181818" points="185.5,1343.4805,189.5,1353.4805,193.5,1343.4805,189.5,1347.4805" style="stroke:#181818;stroke-width:1.0;"/><line style="stroke:#181818;stroke-width:1.0;" x1="4769" x2="4783" y1="1365.4805" y2="1365.4805"/><line style="stroke:#181818;stroke-width:1.0;" x1="4783" x2="4783" y1="1365.4805" y2="1690.0137"/><polygon fill="#181818" points="4779,1680.0137,4783,1690.0137,4787,1680.0137,4783,1684.0137" style="stroke:#181818;stroke-width:1.0;"/><line style="stroke:#181818;stroke-width:1.0;" x1="189.5" x2="4783" y1="1690.0137" y2="1690.0137"/><line style="stroke:#181818;stroke-width:1.0;" x1="2434.5" x2="2434.5" y1="1690.0137" y2="1710.0137"/><polygon fill="#181818" points="2430.5,1700.0137,2434.5,1710.0137,2438.5,1700.0137,2434.5,1704.0137" style="stroke:#181818;stroke-width:1.0;"/><line style="stroke:#181818;stroke-width:1.0;" x1="2434.5" x2="2434.5" y1="344.6641" y2="376.7988"/><polygon fill="#181818" points="2430.5,366.7988,2434.5,376.7988,2438.5,366.7988,2434.5,370.7988" style="stroke:#181818;stroke-width:1.0;"/><line style="stroke:#181818;stroke-width:1.0;" x1="2410" x2="24" y1="332.6641" y2="332.6641"/><polygon fill="#181818" points="20,1056.3389,24,1066.3389,28,1056.3389,24,1060.3389" style="stroke:#181818;stroke-width:1.0;"/><line style="stroke:#181818;stroke-width:1.0;" x1="24" x2="24" y1="332.6641" y2="1754.0137"/><line style="stroke:#181818;stroke-width:1.0;" x1="24" x2="2434.5" y1="1754.0137" y2="1754.0137"/><line style="stroke:#181818;stroke-width:1.0;" x1="2434.5" x2="2434.5" y1="300.6641" y2="320.6641"/><polygon fill="#181818" points="2430.5,310.6641,2434.5,320.6641,2438.5,310.6641,2434.5,314.6641" style="stroke:#181818;stroke-width:1.0;"/><!--SRC=[jLRRRjim37tFLn1vYj6WQtTVkvUXpRO-hEjwMO4DWw7QTAtLbZn9Rff-_KZPJkBB6XHO7mB7einpI1vIiauODzexKj99aSbxXAWq1fKBOsbWBbqABbqkmboR6wckWOmOEMqM-wEzCtHWKpqFKnd7gC1f-2WoYuq9CzgASQWB9xKtxpIcoEWi2tMIM7fRC-JYBfGESykBZ4yBCYzpK6L-XGPq0fKvbhR8n09ZOC-qaLmYgltHQ9xA365oRaeCG5gOEFut0jWxo52OrcPQFAmSjO9T1Wc5S2blambCbl7mOfXe4qQwM8IvlaN6KTh1iLO4IguKJ1Pe6RK3qJZnde6S03jvnauO1rKi4wRrYVD2-pDf7KVTK99eGQWO4WhIWbJ3lATiTsW8vsgnNYCVyfasbVDXfo8hKd65JaOYonR-YmE3mY689Psg295MbXPO5xGs6MzlRu-dCFQ_0BPQ_hSgxzxTX_XtQRige1Ghn1XZgY60mO8Wg_nnbb14gKVbc3twpzRdUwsthQMEVkrx7rm_IHmwa1RmJoao5bj7hRqg4e_FyZhDwEVQbMIS2gMfNgVcpOOg9gW5Ak7zIkw13xhr5Vs9CDLPJB9FIXKnArBp3rbCuKBTy-ExnFaKPh5qKpWW6KtX2-be2YV2EdeS4aD-VYkb2tpYJp4nQDDk3pHYky45fRSe7IH6vtwfj6WyDywWjrkuE05XZ9vxpNIxdEpNNYtSQKB1pa0_844BYxrlIQkxlWjeYAm37dwzF7uOafHbApmctHqMkLIbXTq-aoFrI2Qpu_FPQSzFQpgiIEqCYOYdtFgahUTS8TeTN0kgWVVA5sueTB7ww15uI_Ls4Mi9TmCVxuwzze9-4WzeJ7YVfCcGcpoaqPYqXLiTAEiyk92zDW9XEHCY9zqQErI0yNFYuUN_49DIDLoUWC4BOi2T5mpgeE-nFXisr6deSFA6KnGTdZukPbyVWWJZPx6Zo9QVNGhf_Fd27LntDTKUxsJLwxSK0UGwnWrrVqdHyeHvADr8zgVAzYl2vzasWD-wP0mSoXJkf0t7c-XmuYtZO13kDS7n4FsVS6pz1zmRWlFJEdXug3pooi75eOr0vQ-ezMuUzHZetHpMP6StnylW6_JpbYAi3gA1b7xfaVDvgyav8-Yiwb1Rdf42SXhwuXfP-eaqELz3_As6qKY3Wmb_HtJyUTWdCsjQ8zEwM5t6HlGO_GK0]--></g></svg>